<svg width="36" height="35" viewBox="0 0 36 35" fill="none" xmlns="http://www.w3.org/2000/svg">
<path d="M22.5879 13L27.0879 17.5L22.5879 22M13.5879 22L9.08789 17.5L13.5879 13M6.08789 34H30.0879C31.2814 34 32.426 33.5259 33.2699 32.682C34.1138 31.8381 34.5879 30.6935 34.5879 29.5V5.5C34.5879 4.30653 34.1138 3.16193 33.2699 2.31802C32.426 1.47411 31.2814 1 30.0879 1H6.08789C4.89442 1 3.74982 1.47411 2.90591 2.31802C2.062 3.16193 1.58789 4.30653 1.58789 5.5V29.5C1.58789 30.6935 2.062 31.8381 2.90591 32.682C3.74982 33.5259 4.89442 34 6.08789 34Z" stroke="#CDE7FF" stroke-width="1.5" stroke-linecap="round"/>
</svg>
