<svg width="42" height="32" viewBox="0 0 42 32" fill="none" xmlns="http://www.w3.org/2000/svg">
<path d="M1.58789 23.5L11.9059 13.182C12.3238 12.7641 12.8198 12.4327 13.3658 12.2065C13.9118 11.9804 14.4969 11.864 15.0879 11.864C15.6788 11.864 16.264 11.9804 16.81 12.2065C17.3559 12.4327 17.852 12.7641 18.2699 13.182L28.5879 23.5M25.5879 20.5L28.4059 17.682C28.8238 17.2641 29.3198 16.9327 29.8658 16.7065C30.4118 16.4804 30.9969 16.364 31.5879 16.364C32.1788 16.364 32.764 16.4804 33.31 16.7065C33.8559 16.9327 34.352 17.2641 34.7699 17.682L40.5879 23.5M4.58789 31H37.5879C38.3835 31 39.1466 30.6839 39.7092 30.1213C40.2718 29.5587 40.5879 28.7956 40.5879 28V4C40.5879 3.20435 40.2718 2.44129 39.7092 1.87868C39.1466 1.31607 38.3835 1 37.5879 1H4.58789C3.79224 1 3.02918 1.31607 2.46657 1.87868C1.90396 2.44129 1.58789 3.20435 1.58789 4V28C1.58789 28.7956 1.90396 29.5587 2.46657 30.1213C3.02918 30.6839 3.79224 31 4.58789 31ZM25.5879 8.5H25.6039V8.516H25.5879V8.5ZM26.3379 8.5C26.3379 8.69891 26.2589 8.88968 26.1182 9.03033C25.9776 9.17098 25.7868 9.25 25.5879 9.25C25.389 9.25 25.1982 9.17098 25.0576 9.03033C24.9169 8.88968 24.8379 8.69891 24.8379 8.5C24.8379 8.30109 24.9169 8.11032 25.0576 7.96967C25.1982 7.82902 25.389 7.75 25.5879 7.75C25.7868 7.75 25.9776 7.82902 26.1182 7.96967C26.2589 8.11032 26.3379 8.30109 26.3379 8.5V8.5Z" stroke="#CDE7FF" stroke-width="1.5" stroke-linecap="round"/>
</svg>
