<svg width="44" height="42" viewBox="0 0 44 42" fill="none" xmlns="http://www.w3.org/2000/svg">
<path d="M18.1481 29.2439C20.5261 28.4337 22.8005 27.3462 24.9241 26.0039M14.8381 25.9539C15.6485 23.5708 16.7374 21.2917 18.0821 19.1639M24.9221 26.0039C28.7148 23.6076 31.9611 20.4404 34.4501 16.7079L42.2021 5.0799C42.4991 4.63703 42.6331 4.10479 42.5812 3.57409C42.5294 3.04339 42.2949 2.54714 41.9179 2.17009C41.5408 1.79305 41.0446 1.55859 40.5139 1.50675C39.9832 1.45492 39.451 1.58894 39.0081 1.8859L27.3801 9.6399C23.6471 12.1282 20.4792 15.3738 18.0821 19.1659M24.9221 26.0059C23.5611 22.9621 21.1259 20.5269 18.0821 19.1659M18.1481 29.2439C17.6249 27.954 16.6694 26.8862 15.4454 26.2233C14.2214 25.5604 12.805 25.3437 11.4388 25.6103C10.0726 25.8769 8.84164 26.6103 7.95669 27.6847C7.07175 28.7592 6.58792 30.1079 6.58809 31.4999C6.58809 32.1161 6.46153 32.7258 6.21625 33.2911C5.97097 33.8564 5.6122 34.3653 5.16218 34.7862C4.71215 35.2072 4.18046 35.5313 3.60007 35.7383C3.01967 35.9453 2.40294 36.031 1.78809 35.9899C2.77698 37.7078 4.30535 39.0512 6.13593 39.8115C7.96651 40.5718 9.9969 40.7065 11.9119 40.1947C13.8269 39.6829 15.5193 38.5532 16.7265 36.9811C17.9337 35.4089 18.5881 33.4821 18.5881 31.4999C18.5881 30.7019 18.4321 29.9399 18.1481 29.2439Z" stroke="#CDE7FF" stroke-width="1.5" stroke-linecap="round"/>
</svg>
