<svg width="42" height="30" viewBox="0 0 42 30" fill="none" xmlns="http://www.w3.org/2000/svg">
<path d="M28.5879 12L38.0279 2.56C38.2377 2.35049 38.5048 2.20784 38.7956 2.15007C39.0864 2.0923 39.3878 2.122 39.6617 2.23543C39.9357 2.34885 40.1698 2.5409 40.3347 2.78734C40.4995 3.03377 40.5876 3.32352 40.5879 3.62V26.38C40.5876 26.6765 40.4995 26.9662 40.3347 27.2127C40.1698 27.4591 39.9357 27.6511 39.6617 27.7646C39.3878 27.878 39.0864 27.9077 38.7956 27.8499C38.5048 27.7922 38.2377 27.6495 38.0279 27.44L28.5879 18M6.08789 28.5H24.0879C25.2814 28.5 26.426 28.0259 27.2699 27.182C28.1138 26.3381 28.5879 25.1935 28.5879 24V6C28.5879 4.80653 28.1138 3.66193 27.2699 2.81802C26.426 1.97411 25.2814 1.5 24.0879 1.5H6.08789C4.89442 1.5 3.74982 1.97411 2.90591 2.81802C2.062 3.66193 1.58789 4.80653 1.58789 6V24C1.58789 25.1935 2.062 26.3381 2.90591 27.182C3.74982 28.0259 4.89442 28.5 6.08789 28.5V28.5Z" stroke="#CDE7FF" stroke-width="1.5" stroke-linecap="round"/>
</svg>
