<svg width="38" height="38" viewBox="0 0 38 38" fill="none" xmlns="http://www.w3.org/2000/svg">
<path d="M13.0879 29.5V31.514C13.088 32.3022 12.9328 33.0827 12.6311 33.8109C12.3295 34.5391 11.8873 35.2007 11.3299 35.758L10.0879 37H28.0879L26.8459 35.758C26.2885 35.2007 25.8463 34.5391 25.5446 33.8109C25.243 33.0827 25.0878 32.3022 25.0879 31.514V29.5M37.0879 5.5V25C37.0879 26.1935 36.6138 27.3381 35.7699 28.182C34.926 29.0259 33.7814 29.5 32.5879 29.5H5.58789C4.39442 29.5 3.24982 29.0259 2.40591 28.182C1.562 27.3381 1.08789 26.1935 1.08789 25V5.5M37.0879 5.5C37.0879 4.30653 36.6138 3.16193 35.7699 2.31802C34.926 1.47411 33.7814 1 32.5879 1H5.58789C4.39442 1 3.24982 1.47411 2.40591 2.31802C1.562 3.16193 1.08789 4.30653 1.08789 5.5M37.0879 5.5V19C37.0879 20.1935 36.6138 21.3381 35.7699 22.182C34.926 23.0259 33.7814 23.5 32.5879 23.5H5.58789C4.39442 23.5 3.24982 23.0259 2.40591 22.182C1.562 21.3381 1.08789 20.1935 1.08789 19V5.5" stroke="#CDE7FF" stroke-width="1.5" stroke-linecap="round"/>
</svg>
