<svg width="38" height="39" viewBox="0 0 38 39" fill="none" xmlns="http://www.w3.org/2000/svg">
<path d="M35.588 23.8V32.3C35.588 34.488 34.014 36.372 31.844 36.66C27.67 37.214 23.412 37.5 19.088 37.5C14.764 37.5 10.506 37.214 6.332 36.66C4.162 36.372 2.588 34.488 2.588 32.3V23.8M35.588 23.8C36.0629 23.3873 36.4429 22.8767 36.7018 22.3033C36.9607 21.7298 37.0925 21.1072 37.088 20.478V12.912C37.088 10.75 35.552 8.882 33.414 8.562C31.1486 8.22284 28.8718 7.96467 26.588 7.788M35.588 23.8C35.2 24.13 34.748 24.39 34.242 24.56C29.3544 26.1817 24.2376 27.0056 19.088 27C13.792 27 8.698 26.142 3.934 24.56C3.44052 24.3958 2.98345 24.1378 2.588 23.8M2.588 23.8C2.11309 23.3873 1.73312 22.8767 1.4742 22.3033C1.21527 21.7298 1.08353 21.1072 1.088 20.478V12.912C1.088 10.75 2.624 8.882 4.762 8.562C7.0274 8.22283 9.30418 7.96467 11.588 7.788M26.588 7.788V6C26.588 4.80653 26.1139 3.66193 25.27 2.81802C24.4261 1.97411 23.2815 1.5 22.088 1.5H16.088C14.8945 1.5 13.7499 1.97411 12.906 2.81802C12.0621 3.66193 11.588 4.80653 11.588 6V7.788M26.588 7.788C21.5954 7.40216 16.5806 7.40216 11.588 7.788M19.088 21H19.104V21.016H19.088V21Z" stroke="#CDE7FF" stroke-width="1.5" stroke-linecap="round"/>
</svg>
